PathFileType	4	(X/Y/Z)	 s05c0201.trc
DataRate	CameraRate	NumFrames	NumMarkers	Units	OrigDataRate	OrigDataStartFrame	OrigNumFrames
200	200	4	50	mm	200	1751	2000
Frame#	Time	racr			lacr			c7			jug			rlel			rdr			llel			ldr			s2			lic			ric			lasi			rasi			rpsi			lpsi			rgt			lgt			rth1			rth2			rth3			rth4			rlfc			rmfc			rsh1			rsh2			rsh3			rsh4			rlmal			rmmal			rcal			rtoe			rmt5			lth1			lth2			lth4			lth3			llfc			lmfc			lsh1			lsh2			lsh3			lsh4			llmal			lmmal			lcal			ltoe			lmt5			SBIKE			LBIKE			RBIKE			
		X1	Y1	Z1	X2	Y2	Z2	X3	Y3	Z3	X4	Y4	Z4	X5	Y5	Z5	X6	Y6	Z6	X7	Y7	Z7	X8	Y8	Z8	X9	Y9	Z9	X10	Y10	Z10	X11	Y11	Z11	X12	Y12	Z12	X13	Y13	Z13	X14	Y14	Z14	X15	Y15	Z15	X16	Y16	Z16	X17	Y17	Z17	X18	Y18	Z18	X19	Y19	Z19	X20	Y20	Z20	X21	Y21	Z21	X22	Y22	Z22	X23	Y23	Z23	X24	Y24	Z24	X25	Y25	Z25	X26	Y26	Z26	X27	Y27	Z27	X28	Y28	Z28	X29	Y29	Z29	X30	Y30	Z30	X31	Y31	Z31	X32	Y32	Z32	X33	Y33	Z33	X34	Y34	Z34	X35	Y35	Z35	X36	Y36	Z36	X37	Y37	Z37	X38	Y38	Z38	X39	Y39	Z39	X40	Y40	Z40	X41	Y41	Z41	X42	Y42	Z42	X43	Y43	Z43	X44	Y44	Z44	X45	Y45	Z45	X46	Y46	Z46	X47	Y47	Z47	X48	Y48	Z48	X49	Y49	Z49	X50	Y50	Z50	
1751	8.7550	460.311236	1327.798167	-132.743054	480.308411	1330.193268	-389.221275	438.739508	1408.521230	-266.399129	394.845893	1251.529873	-265.988740	467.774731	1084.892705	19.003454	664.938293	963.060862	-66.755320	471.250131	1096.021980	-580.910115	673.077433	969.269041	-473.622404	-122.741305	1173.134643	-261.390336	16.629004	1186.327979	-407.372214	29.160674	1206.489359	-126.923298	66.775131	1136.171826	-372.661128	73.629502	1144.590722	-151.168997	-88.018200	1223.690900	-223.289803	-91.031626	1223.857512	-309.749202	-12.953748	1065.526583	-93.985724	-33.255043	1089.197140	-432.294225	71.789551	970.367659	-77.473209	140.763844	913.822787	-80.233559	170.698597	830.995969	-89.346492	169.465368	935.642405	-91.037110	263.220301	715.841074	-113.779883	245.799957	705.531001	-220.918036	223.717760	613.578172	-84.872308	241.355033	526.953035	-93.803724	217.033588	445.233239	-94.767823	271.809215	527.984249	-117.938237	219.955831	308.358047	-104.625483	230.989729	336.894225	-184.152261	151.858465	275.936927	-149.849437	448.134108	253.844136	-146.523701	346.898352	229.433764	-81.703213	87.577749	1016.450865	-439.253835	173.003481	1007.143979	-431.238690	185.979636	1038.666496	-413.846831	244.892096	952.405350	-428.749792	361.585665	861.802928	-389.541250	340.321169	845.916502	-281.004925	270.674421	782.642491	-421.606088	226.470756	707.393280	-416.425516	149.220192	663.656687	-422.330767	248.358529	685.591213	-393.364419	69.486111	579.267371	-425.553606	102.755860	579.111247	-349.162824	0.196659	594.402706	-384.434998	174.047631	356.759177	-394.730005	86.232667	425.044514	-455.624996	-258.966523	898.339357	-280.211773	-43.540002	85.107089	-474.919681	-51.797349	80.052303	-77.436858	
1752	8.7600	460.419019	1329.401298	-134.197824	479.662624	1331.310702	-390.889941	438.592226	1409.986628	-268.134369	394.872969	1252.921644	-267.626195	468.135669	1086.841642	18.034131	664.959729	962.962106	-66.991604	471.185332	1095.988472	-581.365373	673.549119	969.458301	-474.830473	-122.080363	1173.213768	-260.104299	16.016364	1187.278822	-406.897290	30.885004	1206.134910	-126.188991	66.688597	1137.170234	-372.369974	74.818896	1144.122681	-150.917294	-86.202860	1223.205637	-222.457248	-90.799141	1224.079798	-308.219511	-12.643556	1064.280656	-93.572388	-32.904287	1091.017216	-432.090015	69.566123	967.536949	-76.555425	137.104293	909.217338	-79.103798	164.773236	825.610081	-88.319448	166.364612	930.299665	-90.023201	255.311976	708.911511	-112.899107	237.455291	698.980732	-220.040229	216.547736	606.858131	-84.043788	234.865100	520.527615	-92.809548	210.979805	438.482249	-94.344032	265.029176	521.747063	-117.539974	214.960190	301.457139	-104.449938	226.664743	329.554450	-183.807831	146.740154	269.920276	-149.772008	442.795097	243.765134	-146.636405	341.289711	220.676793	-81.778249	88.478817	1020.635056	-438.802231	174.374897	1013.192753	-431.663793	186.464102	1044.453486	-413.069412	247.005818	959.259801	-428.739883	365.624650	870.328835	-389.684620	343.689375	853.888325	-281.626677	274.701296	791.824134	-421.144946	230.336035	716.805820	-416.187059	152.927571	673.563035	-421.998969	252.382999	694.650939	-393.898946	72.398486	588.155143	-425.227906	105.427171	587.666229	-348.906011	2.543717	602.076365	-384.050030	180.670938	367.755025	-394.645086	91.742844	434.367192	-455.477199	-259.048062	898.433759	-280.208843	-43.556275	85.136188	-474.915611	-51.801863	80.086199	-77.401417	
1753	8.7650	460.532460	1330.911660	-135.658108	479.242468	1332.590070	-392.696366	438.453158	1411.465091	-269.705212	394.926597	1254.382917	-269.206165	468.608350	1088.834229	17.106174	664.997102	962.728044	-67.521144	470.880586	1095.991012	-581.612579	673.741547	969.578027	-475.701779	-121.422003	1173.275170	-258.896070	15.478862	1188.147377	-406.386250	32.443016	1205.542886	-125.745135	66.573673	1138.207443	-372.139674	75.931514	1143.495925	-150.755759	-85.294474	1222.810508	-220.989368	-90.517711	1224.316573	-306.742220	-12.452242	1063.133058	-93.240197	-32.504282	1092.825304	-431.900835	67.139314	964.973675	-75.666602	133.131165	904.957683	-78.245991	158.881660	820.815959	-87.087898	163.010284	925.414890	-88.914021	247.466815	702.598298	-112.132879	229.438067	692.982386	-219.458244	209.326901	600.753467	-83.226796	228.425254	514.633170	-91.850002	204.811683	432.349151	-93.744731	258.089985	515.924733	-117.175392	209.573765	295.199747	-104.276045	221.457212	323.273686	-183.442671	141.287486	264.694997	-149.705531	436.927058	233.961343	-146.848735	335.157298	212.325025	-81.901764	89.353878	1024.589912	-438.383743	175.409727	1018.660937	-431.521732	186.838127	1050.086634	-412.406821	248.882710	966.104004	-428.977884	369.304258	878.869328	-390.199510	347.952975	861.984739	-281.685108	278.951904	800.982523	-420.466938	234.433149	726.193288	-416.206666	156.748306	683.184252	-421.756753	256.445855	703.902711	-393.780969	75.582040	596.591615	-424.907316	108.701915	596.556818	-348.805676	5.335527	609.467222	-384.028501	187.878890	378.313524	-394.484535	97.575688	443.303767	-455.336819	-259.010838	898.447650	-280.182151	-43.562425	85.152562	-474.906606	-51.809423	80.086725	-77.398141	
1754	8.7700	460.641575	1332.487371	-137.114435	478.828634	1334.067684	-394.440653	438.225243	1413.004921	-271.343464	394.979155	1255.776974	-270.721305	469.263172	1090.723872	16.144445	665.089075	962.532377	-68.141235	470.596331	1096.161415	-581.929419	673.692940	969.662787	-476.274473	-120.685878	1173.327483	-257.788116	14.950868	1189.058724	-405.936682	33.987710	1204.757729	-125.337599	66.448303	1138.960330	-371.801849	76.902720	1142.622442	-150.703983	-84.503153	1222.557924	-219.562809	-90.207591	1224.531774	-305.377139	-12.413217	1062.027122	-92.968103	-32.141887	1094.608040	-431.760899	64.614208	962.737852	-74.870788	129.281528	901.218380	-77.124501	153.122936	816.574121	-85.792988	159.595107	921.018679	-87.761980	239.771968	696.961117	-111.189686	221.818251	687.416610	-218.471274	202.191177	595.226608	-82.428938	221.706666	509.152339	-91.153251	198.392694	426.761942	-93.079047	250.754050	510.526938	-116.626799	203.795945	289.472087	-104.063755	216.058630	317.444997	-183.023161	135.450062	259.848745	-149.771739	430.556121	224.453889	-146.957229	328.516107	204.383122	-82.051168	90.132796	1028.343254	-438.168594	176.371448	1023.940695	-431.399699	187.123747	1055.396703	-411.679990	250.847084	972.638879	-429.025849	373.425469	887.648991	-389.502575	352.118439	870.013860	-281.872024	283.175242	809.941703	-420.249817	238.435486	735.225207	-415.994965	160.662066	692.347330	-421.482149	260.656680	712.642444	-394.309414	79.029928	604.512378	-424.605687	112.301108	604.922774	-348.583640	8.348602	616.206567	-383.896078	195.376403	388.507886	-393.442627	103.919889	451.832760	-455.158988	-259.047161	898.441205	-280.180157	-43.570649	85.171098	-474.904342	-51.817309	80.063233	-77.411910	
